<svg xmlns="http://www.w3.org/2000/svg" width="1188" height="170" viewBox="0 0 1188 170"><title>OpenDeck ALSA plugin — key faces and dial touchstrip</title><svg x="16" y="16" width="116" height="116" viewBox="0 0 144 144"><rect width="144" height="144" rx="18" fill="#17181c"/><path d="M26.13 104.12 A56 56 0 1 1 117.87 104.12" fill="none" stroke="#3a3f4b" stroke-width="12" stroke-linecap="round"/><path d="M26.13 104.12 A56 56 0 1 1 117.87 104.12" fill="none" stroke="#5b9dff" stroke-width="12" stroke-linecap="round" stroke-dasharray="183.26 62.09"/><g data-glyph="speaker" transform="translate(46.08,18.08) scale(0.54)"><path d="M6 34 L24 34 L46 14 L46 82 L24 62 L6 62 Z" fill="#f2f4f8"/><path d="M54.62 36.97 A14 14 0 0 1 54.62 59.03" fill="none" stroke="#f2f4f8" stroke-width="8" stroke-linecap="round"/><path d="M62.01 27.51 A26 26 0 0 1 62.01 68.49" fill="none" stroke="#f2f4f8" stroke-width="8" stroke-linecap="round"/></g><text x="72" y="102" text-anchor="middle" font-family="Inter, DejaVu Sans, Helvetica, sans-serif" font-size="32" font-weight="700" fill="#f2f4f8">75%</text><text x="72" y="132" text-anchor="middle" font-family="Inter, DejaVu Sans, Helvetica, sans-serif" font-size="21" font-weight="700" fill="#6b7280">Master</text></svg><text x="74" y="147" text-anchor="middle" font-family="-apple-system, BlinkMacSystemFont, 'Segoe UI', Roboto, 'Helvetica Neue', Arial, sans-serif" font-size="11" fill="#8b949e">Volume</text><svg x="150" y="16" width="116" height="116" viewBox="0 0 144 144"><rect width="144" height="144" rx="18" fill="#17181c"/><path d="M26.13 104.12 A56 56 0 1 1 117.87 104.12" fill="none" stroke="#3a3f4b" stroke-width="12" stroke-linecap="round"/><g data-glyph="speaker" transform="translate(46.08,18.08) scale(0.54)"><path d="M6 34 L24 34 L46 14 L46 82 L24 62 L6 62 Z" fill="#6b7280"/><line x1="12" y1="12" x2="84" y2="84" stroke="#e5484d" stroke-width="10" stroke-linecap="round"/></g><text x="72" y="100" text-anchor="middle" font-family="Inter, DejaVu Sans, Helvetica, sans-serif" font-size="26" font-weight="700" fill="#e5484d" textLength="98" lengthAdjust="spacingAndGlyphs">MUTED</text><text x="72" y="132" text-anchor="middle" font-family="Inter, DejaVu Sans, Helvetica, sans-serif" font-size="21" font-weight="700" fill="#6b7280">Master</text></svg><text x="208" y="147" text-anchor="middle" font-family="-apple-system, BlinkMacSystemFont, 'Segoe UI', Roboto, 'Helvetica Neue', Arial, sans-serif" font-size="11" fill="#8b949e">Volume, muted</text><svg x="284" y="16" width="116" height="116" viewBox="0 0 144 144"><rect width="144" height="144" rx="18" fill="#17181c"/><path d="M26.13 104.12 A56 56 0 1 1 117.87 104.12" fill="none" stroke="#3a3f4b" stroke-width="12" stroke-linecap="round"/><path d="M26.13 104.12 A56 56 0 1 1 117.87 104.12" fill="none" stroke="#5b9dff" stroke-width="12" stroke-linecap="round" stroke-dasharray="183.26 62.09"/><g data-glyph="speaker" transform="translate(40.00,24.00) scale(0.5)"><path d="M6 34 L24 34 L46 14 L46 82 L24 62 L6 62 Z" fill="#f2f4f8"/><path d="M54.62 36.97 A14 14 0 0 1 54.62 59.03" fill="none" stroke="#f2f4f8" stroke-width="8" stroke-linecap="round"/></g><g data-dir="up"><circle cx="108" cy="36" r="22" fill="none" stroke="#17181c" stroke-width="8"/><circle cx="108" cy="36" r="18" fill="#5b9dff"/><line x1="99" y1="36" x2="117" y2="36" stroke="#17181c" stroke-width="7" stroke-linecap="round"/><line x1="108" y1="27" x2="108" y2="45" stroke="#17181c" stroke-width="7" stroke-linecap="round"/></g><text x="72" y="102" text-anchor="middle" font-family="Inter, DejaVu Sans, Helvetica, sans-serif" font-size="32" font-weight="700" fill="#f2f4f8">75%</text><text x="72" y="132" text-anchor="middle" font-family="Inter, DejaVu Sans, Helvetica, sans-serif" font-size="21" font-weight="700" fill="#6b7280">Master</text></svg><text x="342" y="147" text-anchor="middle" font-family="-apple-system, BlinkMacSystemFont, 'Segoe UI', Roboto, 'Helvetica Neue', Arial, sans-serif" font-size="11" fill="#8b949e">Volume up</text><svg x="418" y="16" width="116" height="116" viewBox="0 0 144 144"><rect width="144" height="144" rx="18" fill="#17181c"/><path d="M26.13 104.12 A56 56 0 1 1 117.87 104.12" fill="none" stroke="#3a3f4b" stroke-width="12" stroke-linecap="round"/><path d="M26.13 104.12 A56 56 0 1 1 117.87 104.12" fill="none" stroke="#5b9dff" stroke-width="12" stroke-linecap="round" stroke-dasharray="183.26 62.09"/><g data-glyph="speaker" transform="translate(40.00,24.00) scale(0.5)"><path d="M6 34 L24 34 L46 14 L46 82 L24 62 L6 62 Z" fill="#f2f4f8"/><path d="M54.62 36.97 A14 14 0 0 1 54.62 59.03" fill="none" stroke="#f2f4f8" stroke-width="8" stroke-linecap="round"/></g><g data-dir="down"><circle cx="108" cy="36" r="22" fill="none" stroke="#17181c" stroke-width="8"/><circle cx="108" cy="36" r="18" fill="#5b9dff"/><line x1="99" y1="36" x2="117" y2="36" stroke="#17181c" stroke-width="7" stroke-linecap="round"/></g><text x="72" y="102" text-anchor="middle" font-family="Inter, DejaVu Sans, Helvetica, sans-serif" font-size="32" font-weight="700" fill="#f2f4f8">75%</text><text x="72" y="132" text-anchor="middle" font-family="Inter, DejaVu Sans, Helvetica, sans-serif" font-size="21" font-weight="700" fill="#6b7280">Master</text></svg><text x="476" y="147" text-anchor="middle" font-family="-apple-system, BlinkMacSystemFont, 'Segoe UI', Roboto, 'Helvetica Neue', Arial, sans-serif" font-size="11" fill="#8b949e">Volume down</text><svg x="552" y="16" width="116" height="116" viewBox="0 0 144 144"><rect width="144" height="144" rx="18" fill="#17181c"/><g data-glyph="mic" transform="translate(24.00,10.00) scale(1)"><rect x="34" y="8" width="28" height="48" rx="14" fill="#f2f4f8"/><path d="M18 46 A30 30 0 0 0 78 46" fill="none" stroke="#f2f4f8" stroke-width="9" stroke-linecap="round"/><line x1="48" y1="72" x2="48" y2="84" stroke="#f2f4f8" stroke-width="9" stroke-linecap="round"/><line x1="30" y1="86" x2="66" y2="86" stroke="#f2f4f8" stroke-width="9" stroke-linecap="round"/></g><text x="72" y="132" text-anchor="middle" font-family="Inter, DejaVu Sans, Helvetica, sans-serif" font-size="22" font-weight="700" fill="#6b7280">Capture</text></svg><text x="610" y="147" text-anchor="middle" font-family="-apple-system, BlinkMacSystemFont, 'Segoe UI', Roboto, 'Helvetica Neue', Arial, sans-serif" font-size="11" fill="#8b949e">Mic</text><svg x="686" y="16" width="116" height="116" viewBox="0 0 144 144"><rect width="144" height="144" rx="18" fill="#17181c"/><g data-glyph="mic" transform="translate(24.00,10.00) scale(1)"><rect x="34" y="8" width="28" height="48" rx="14" fill="#6b7280"/><path d="M18 46 A30 30 0 0 0 78 46" fill="none" stroke="#6b7280" stroke-width="9" stroke-linecap="round"/><line x1="48" y1="72" x2="48" y2="84" stroke="#6b7280" stroke-width="9" stroke-linecap="round"/><line x1="30" y1="86" x2="66" y2="86" stroke="#6b7280" stroke-width="9" stroke-linecap="round"/><line x1="12" y1="10" x2="84" y2="86" stroke="#e5484d" stroke-width="10" stroke-linecap="round"/></g><text x="72" y="132" text-anchor="middle" font-family="Inter, DejaVu Sans, Helvetica, sans-serif" font-size="22" font-weight="700" fill="#e5484d">Capture</text></svg><text x="744" y="147" text-anchor="middle" font-family="-apple-system, BlinkMacSystemFont, 'Segoe UI', Roboto, 'Helvetica Neue', Arial, sans-serif" font-size="11" fill="#8b949e">Mic, muted</text><svg x="820" y="16" width="116" height="116" viewBox="0 0 144 144"><rect width="144" height="144" rx="18" fill="#17181c"/><g data-glyph="speaker" transform="translate(24.00,10.00) scale(1)"><path d="M6 34 L24 34 L46 14 L46 82 L24 62 L6 62 Z" fill="#6b7280"/><line x1="12" y1="12" x2="84" y2="84" stroke="#e5484d" stroke-width="10" stroke-linecap="round"/></g><text x="72" y="132" text-anchor="middle" font-family="Inter, DejaVu Sans, Helvetica, sans-serif" font-size="22" font-weight="700" fill="#e5484d">Master</text></svg><text x="878" y="147" text-anchor="middle" font-family="-apple-system, BlinkMacSystemFont, 'Segoe UI', Roboto, 'Helvetica Neue', Arial, sans-serif" font-size="11" fill="#8b949e">Speakers, muted</text><g transform="translate(972,24)"><rect width="200" height="100" rx="10" fill="#000000"/><text x="16" y="27" font-family="-apple-system, BlinkMacSystemFont, 'Segoe UI', Roboto, 'Helvetica Neue', Arial, sans-serif" font-size="16" font-weight="600" fill="#dfe3ea">Master</text><svg x="16" y="40" width="48" height="48" viewBox="0 0 48 48"><path d="M6 18 L13 18 L22 9 L22 39 L13 30 L6 30 Z" fill="#ffffff"/><path d="M27 17 A9 9 0 0 1 27 31" fill="none" stroke="#ffffff" stroke-width="4" stroke-linecap="round"/><path d="M32.5 11 A15.5 15.5 0 0 1 32.5 37" fill="none" stroke="#ffffff" stroke-width="4" stroke-linecap="round"/></svg><text x="184" y="64" text-anchor="end" font-family="-apple-system, BlinkMacSystemFont, 'Segoe UI', Roboto, 'Helvetica Neue', Arial, sans-serif" font-size="24" font-weight="600" fill="#ffffff">75%</text><rect x="76" y="74" width="108" height="12" rx="6" fill="#33363d"/><rect x="76" y="74" width="81" height="12" rx="6" fill="#5b9dff"/></g><text x="1072" y="147" text-anchor="middle" font-family="-apple-system, BlinkMacSystemFont, 'Segoe UI', Roboto, 'Helvetica Neue', Arial, sans-serif" font-size="11" fill="#8b949e">Dial touchstrip ($B1)</text></svg>
